# xmcd CD database file
#
# Track frame offsets:
#	150
#	53242
#	75811
#	98561
#	125524
#	151281
#	171313
#	193805
#	218512
#	241294
#	263933
#	285336
#
# Disc length: 4079 seconds
#
# Revision: 0
# Processed by: cddbd v1.5.2PL0 Copyright (c) Steve Scherf et al.
# Submitted via: CDex 1.50
#
DISCID=980fed0c
DTITLE=Salsa Mix - Salsa Mix
DYEAR=1900
DGENRE=Salsa
TTITLE0=01 - Salsa Mix - Megamix Version - Various Artists
TTITLE1=02 - Cara De Niño - Various Artists
TTITLE2=03 - Palabras Del Alma - Various Artists
TTITLE3=04 - No Vale La Pena - Various Artists
TTITLE4=05 - Duele Mas - Various Artists
TTITLE5=06 - Salsa Mix - Radio Edit - Various Artists
TTITLE6=07 - Mi Media Mitad - Various Artists
TTITLE7=08 - Que Manera De Quererte - Various Artists
TTITLE8=09 - Si Tuviera Tus Ojos - Various Artists
TTITLE9=10 - Tu Me Vuelves Loco - Various Artists
TTITLE10=11 - Por Eso Esta Conmigo - Various Artists
TTITLE11=12 - Y Todavia Me Amas - Various Artists
EXTD=
EXTT0=
EXTT1=
EXTT2=
EXTT3=
EXTT4=
EXTT5=
EXTT6=
EXTT7=
EXTT8=
EXTT9=
EXTT10=
EXTT11=
PLAYORDER=
